# xmcd
#
# Track frame offsets:
#      150
#      11718
#      26550
#      37840
#      51588
#      63043
#      74800
#      83798
#      96690
#      107513
#      122228
#      134320
#      146235
#      157040
#      168718
#      180978
# 
# Disc length: 2582 seconds
#
# Revision: 2
# Processed by: cddbd v1.4PL0 Copyright (c) Steve Scherf et al.
#
# Submitted via: FreeRIP 1.21
#
DISCID=e90a1410
DTITLE=Connie Francis - Love N Country
DYEAR=1900
DGENRE=country
TTITLE0=My Happiness
TTITLE1=This Girl's In Love With You
TTITLE2=I'm Sorry I Made You Cry
TTITLE3=What's Wrong With My World
TTITLE4=I'm A Fool To Care
TTITLE5=Please Help Me I'm Falling
TTITLE6=Many Tears Ago
TTITLE7=I Can't Stop Loving You
TTITLE8=You Always Hurt The One You Love
TTITLE9=The Look Of Love
TTITLE10=If I Didn't Care
TTITLE11=Breaking In A Brand New Heart
TTITLE12=If You Ever Change You Mind
TTITLE13=Send Me The Pillow You Dream On
TTITLE14=Everybody's Somebody's Fool
TTITLE15=My Heart Cries For You
EXTD=
EXTT0=
EXTT1=
EXTT2=
EXTT3=
EXTT4=
EXTT5=
EXTT6=
EXTT7=
EXTT8=
EXTT9=
EXTT10=
EXTT11=
EXTT12=
EXTT13=
EXTT14=
EXTT15=
PLAYORDER=
